<?xml version="1.0" encoding="UTF-8" standalone="no"?>
<!-- Created with Inkscape (http://www.inkscape.org/) -->

<svg
   version="1.1"
   id="svg1"
   width="256"
   height="256"
   viewBox="0 0 256 256"
   sodipodi:docname="logo.svg"
   inkscape:version="1.4.3 (0d15f75042, 2025-12-25)"
   inkscape:export-filename="名片正面.pdf"
   inkscape:export-xdpi="96"
   inkscape:export-ydpi="96"
   xmlns:inkscape="http://www.inkscape.org/namespaces/inkscape"
   xmlns:sodipodi="http://sodipodi.sourceforge.net/DTD/sodipodi-0.dtd"
   xmlns="http://www.w3.org/2000/svg"
   xmlns:svg="http://www.w3.org/2000/svg">
  <defs
     id="defs1">
    <rect
       x="323.5"
       y="421"
       width="473.75021"
       height="154.08936"
       id="rect7" />
  </defs>
  <sodipodi:namedview
     id="namedview1"
     pagecolor="#505050"
     bordercolor="#eeeeee"
     borderopacity="1"
     inkscape:showpageshadow="0"
     inkscape:pageopacity="0"
     inkscape:pagecheckerboard="false"
     inkscape:deskcolor="#505050"
     showgrid="false"
     showguides="true"
     inkscape:zoom="2.3551276"
     inkscape:cx="89.379445"
     inkscape:cy="151.79644"
     inkscape:window-width="2520"
     inkscape:window-height="1360"
     inkscape:window-x="0"
     inkscape:window-y="0"
     inkscape:window-maximized="0"
     inkscape:current-layer="layer2"
     inkscape:clip-to-page="false"
     showborder="true"
     labelstyle="default">
    <sodipodi:guide
       position="0,512"
       orientation="0,1110"
       id="guide2"
       inkscape:locked="false" />
    <sodipodi:guide
       position="256,33.288553"
       orientation="685,0"
       id="guide3"
       inkscape:locked="false" />
    <sodipodi:guide
       position="0,128"
       orientation="0,-1110"
       id="guide4"
       inkscape:locked="false" />
    <sodipodi:guide
       position="0,-173"
       orientation="-685,0"
       id="guide5"
       inkscape:locked="false" />
    <sodipodi:guide
       position="189.11507,0"
       orientation="0,-1"
       id="guide7"
       inkscape:locked="false" />
    <sodipodi:guide
       position="128,256"
       orientation="1,0"
       id="guide1"
       inkscape:locked="false" />
  </sodipodi:namedview>
  <g
     inkscape:groupmode="layer"
     id="layer2"
     inkscape:label="背景">
    <rect
       style="display:inline;opacity:1;fill:#ffffff;fill-opacity:1;stroke-width:0.258339"
       id="rect13"
       width="256"
       height="256"
       x="0"
       y="0" />
    <g
       id="g1"
       transform="matrix(0.55536607,0,0,0.55536607,-180.22817,-77.622963)">
      <g
         id="g3">
        <path
           style="display:inline;fill:#000000;fill-opacity:1;stroke-width:1.37998"
           d="M 650.1582,372.51461 A 35.916908,36.854401 0 0 1 614.5,407.0654 35.916908,36.854401 0 0 1 587.23242,393.76852 c -2.2462,8.82587 -5.76969,17.34815 -10.64258,25.05469 -5.26464,8.3261 -12.25392,15.64457 -19.90039,21.69531 a 89.818241,86.265116 0 0 0 53.3125,15.96094 89.818241,86.265116 0 0 0 18,-2.33985 84.110641,85.299873 0 0 0 0.89649,-0.20312 89.818241,86.265116 0 0 0 9.25781,-2.58984 84.110641,85.299873 0 0 0 8.26758,-3.11133 89.818241,86.265116 0 0 0 0.68554,-0.33203 84.110641,85.299873 0 0 0 26.7793,-19.20118 89.818241,86.265116 0 0 0 3.23047,-3.35546 84.110641,85.299873 0 0 0 2.70508,-3.53321 89.818241,86.265116 0 0 0 17.73633,-47.44726 z"
           id="path39" />
        <path
           style="display:inline;fill:#000000;fill-opacity:1;stroke-width:1.37998"
           d="m 412.43945,289.88376 v 44.4375 71.78124 44.43555 h 44.69141 v -45.39453 -13.76758 a 34.09502,34.778473 0 0 0 -0.002,-0.002 v -42.01953 a 34.09502,34.778473 0 0 0 0.002,-0.002 v -13.76757 h 27.06054 a 34.09502,34.778473 0 0 1 26.17579,12.49804 c 4.28108,-17.35808 13.40754,-33.35146 26.12695,-44.89843 0.61807,-0.5611 1.27367,-1.08934 1.91601,-1.62891 a 83.071976,80.326736 0 0 0 -42.5371,-11.66406 v -0.002 h -0.082 a 83.071976,80.326736 0 0 0 -0.27929,-0.006 83.071976,80.326736 0 0 0 -0.084,0.006 h -10.66211 v 0.0391 a 80.434868,80.326736 0 0 0 -0.53906,-0.0449 z"
           id="path38" />
        <path
           style="display:inline;fill:#a32311;fill-opacity:1;stroke-width:1.37998"
           d="m 602.41797,284.14352 a 89.818241,86.265116 0 0 0 -13.42383,1.88867 c -0.35158,0.0779 -0.70664,0.14685 -1.05664,0.22852 a 89.818241,86.265116 0 0 0 -11.23438,3.37305 c -1.18503,0.43616 -2.35903,0.89038 -3.51953,1.37109 a 89.818241,86.265116 0 0 0 -8.67773,4.13086 c -1.41713,0.76559 -2.80935,1.56484 -4.17774,2.39844 a 89.818241,86.265116 0 0 0 -7.97851,5.4414 c -0.95119,0.72619 -1.88155,1.47554 -2.80078,2.23633 a 89.818241,86.265116 0 0 0 -2.42383,2.2793 83.071976,80.326736 0 0 0 -0.12695,-0.0859 c -17.62889,15.72881 -28.65861,37.96193 -28.72461,62.63867 a 34.09502,34.778473 0 0 1 0.0137,0.32031 34.09502,34.778473 0 0 1 -34.09571,34.7793 h -16.39846 v 45.39453 h 16.43359 11.25 v -0.002 a 83.071976,80.326736 0 0 0 0.0352,0.002 83.071976,80.326736 0 0 0 51.5,-17.50781 89.818241,86.265116 0 0 0 0.10937,0.084 c 19.84875,-15.21854 31.45282,-38.37416 31.46289,-62.90234 a 35.916908,36.854401 0 0 1 35.4375,-36.79102 35.706028,36.948524 0 0 1 1.90039,0.11719 35.916908,36.854401 0 0 1 6.49024,0.82617 35.706028,36.948524 0 0 1 2.21094,0.6543 35.916908,36.854401 0 0 1 5.62109,2.23633 35.706028,36.948524 0 0 1 2.45117,1.37891 35.916908,36.854401 0 0 1 4.36133,3.16406 35.706028,36.948524 0 0 1 2.57031,2.32031 35.916908,36.854401 0 0 1 2.93945,3.51563 35.706028,36.948524 0 0 1 2.42774,3.41601 35.916908,36.854401 0 0 1 1.58008,3.24805 35.706028,36.948524 0 0 1 1.30078,3.44336 l 48.5,-2.45118 a 89.818241,86.265116 0 0 0 -7.68555,-22.68945 84.110641,85.299873 0 0 0 -1.24414,-2.5625 89.818241,86.265116 0 0 0 -3.08008,-5.02148 84.110641,85.299873 0 0 0 -52.07617,-37.64844 89.818241,86.265116 0 0 0 -29.87109,-3.22461 z"
           id="path37" />
      </g>
    </g>
  </g>
  <g
     inkscape:groupmode="layer"
     id="layer1"
     inkscape:label="logo">
    <path
       id="path10-1"
       style="baseline-shift:baseline;display:none;overflow:visible;vector-effect:none;fill:#000000;fill-opacity:1;enable-background:accumulate;stop-color:#000000"
       d="m 616.45117,231.57431 a 84.110641,85.299873 0 0 0 -67.1582,34.30469 80.434868,80.326736 0 0 0 -62.14258,-29.33203 h -71.78711 v 44.4375 71.78124 44.43555 h 44.69141 v -45.39453 -13.76758 a 34.09502,34.778473 0 0 0 -0.002,-0.002 v -42.01953 a 34.09502,34.778473 0 0 0 0.002,-0.002 v -13.76757 h 27.06054 a 34.09502,34.778473 0 0 1 34.09571,34.77929 34.09502,34.778473 0 0 1 -34.09571,34.7793 H 470.7168 v 45.39453 h 16.43359 a 80.434868,80.326736 0 0 0 62.06836,-29.43359 84.110641,85.299873 0 0 0 67.23242,34.40625 84.110641,85.299873 0 0 0 83.87305,-81.92188 l -47.22266,-1.18359 a 35.916908,36.854401 0 0 1 -35.67773,34.66016 35.916908,36.854401 0 0 1 -35.91602,-36.85352 35.916908,36.854401 0 0 1 35.91602,-36.85547 35.916908,36.854401 0 0 1 33.83398,24.55664 l 47.98828,-2.59765 a 84.110641,85.299873 0 0 0 -82.79492,-70.4043 z" />
    <path
       id="path14-2-2"
       style="display:none;opacity:0.5;fill:#626262;fill-opacity:1;stroke-width:1.00984"
       d="m 616.83703,229.93332 a 95.599624,86.982121 0 0 0 -95.59938,86.98262 95.599624,86.982121 0 0 0 95.59938,86.98063 95.599624,86.982121 0 0 0 95.22553,-82.22261 L 653.507,319.19835 a 36.752502,37.813336 0 0 1 -35.89308,35.52279 36.752502,37.813336 0 0 1 -37.49556,-36.20791 36.752502,37.813336 0 0 1 34.39186,-39.33477 36.752502,37.813336 0 0 1 36.85886,25.15434 l 59.47069,-3.17466 a 95.599624,86.982121 0 0 0 -94.00274,-71.22482 z" />
    <path
       style="display:none;opacity:0.325444;fill:#000000;fill-opacity:1;stroke-width:1.00157"
       id="path16"
       sodipodi:type="arc"
       sodipodi:cx="617.42401"
       sodipodi:cy="316.87442"
       sodipodi:rx="83.353874"
       sodipodi:ry="85.299408"
       sodipodi:start="6.2721807"
       sodipodi:end="6.1986961"
       sodipodi:open="true"
       sodipodi:arc-type="arc"
       d="m 700.77284,315.93575 a 83.353874,85.299408 0 0 1 -80.9006,86.20128 83.353874,85.299408 0 0 1 -85.70711,-81.19137 83.353874,85.299408 0 0 1 77.7517,-89.18427 83.353874,85.299408 0 0 1 88.56372,77.91472" />
  </g>
</svg>
