<?xml version="1.0" encoding="UTF-8" standalone="no"?>
<svg
   viewBox="0 0 24 24"
   version="1.1"
   id="svg2"
   sodipodi:docname="pinyin-input-white.svg"
   inkscape:version="1.4.3 (0d15f75042, 2025-12-25)"
   xmlns:inkscape="http://www.inkscape.org/namespaces/inkscape"
   xmlns:sodipodi="http://sodipodi.sourceforge.net/DTD/sodipodi-0.dtd"
   xmlns="http://www.w3.org/2000/svg"
   xmlns:svg="http://www.w3.org/2000/svg">
  <defs
     id="defs2" />
  <sodipodi:namedview
     id="namedview2"
     pagecolor="#ffffff"
     bordercolor="#999999"
     borderopacity="1"
     inkscape:showpageshadow="2"
     inkscape:pageopacity="0"
     inkscape:pagecheckerboard="0"
     inkscape:deskcolor="#d1d1d1"
     inkscape:zoom="31.450039"
     inkscape:cx="6.9475271"
     inkscape:cy="14.546882"
     inkscape:window-width="2520"
     inkscape:window-height="1360"
     inkscape:window-x="0"
     inkscape:window-y="0"
     inkscape:window-maximized="0"
     inkscape:current-layer="svg2" />
  <path
     fill="none"
     d="M0 0h24v24H0z"
     id="path1" />
  <path
     d="M17.934 3.036l1.732 1L18.531 6H21v2h-2v4h2v2h-2v7h-2v-7h-3.084c-.325 2.862-1.564 5.394-3.37 7.193l-1.562-1.27c1.52-1.438 2.596-3.522 2.917-5.922L10 14v-2l2-.001V8h-2V6h2.467l-1.133-1.964 1.732-1L14.777 6h1.444l1.713-2.964zM5 13.803l-2 .536v-2.071l2-.536V8H3V6h2V3h2v3h2v2H7v3.197l2-.536v2.07l-2 .536V18.5A2.5 2.5 0 0 1 4.5 21H3v-2h1.5a.5.5 0 0 0 .492-.41L5 18.5v-4.697zM17 8h-3v4h3V8z"
     id="path2"
     style="fill:#ffffff;fill-opacity:1" />
</svg>
