<?xml version="1.0" encoding="UTF-8" standalone="no"?>
<svg
   viewBox="0 0 640 640"
   version="1.1"
   id="svg1"
   sodipodi:docname="text.svg"
   inkscape:export-filename="text.svg"
   inkscape:export-xdpi="96"
   inkscape:export-ydpi="96"
   inkscape:version="1.4.2 (ebf0e940d0, 2025-05-08)"
   xmlns:inkscape="http://www.inkscape.org/namespaces/inkscape"
   xmlns:sodipodi="http://sodipodi.sourceforge.net/DTD/sodipodi-0.dtd"
   xmlns="http://www.w3.org/2000/svg"
   xmlns:svg="http://www.w3.org/2000/svg">
  <defs
     id="defs1" />
  <sodipodi:namedview
     id="namedview1"
     pagecolor="#ffffff"
     bordercolor="#999999"
     borderopacity="1"
     inkscape:showpageshadow="2"
     inkscape:pageopacity="0"
     inkscape:pagecheckerboard="0"
     inkscape:deskcolor="#d1d1d1"
     inkscape:zoom="1.9203125"
     inkscape:cx="320"
     inkscape:cy="399.15378"
     inkscape:window-width="2520"
     inkscape:window-height="1360"
     inkscape:window-x="0"
     inkscape:window-y="0"
     inkscape:window-maximized="0"
     inkscape:current-layer="svg1" />
  <!--!Font Awesome Free 7.1.0 by @fontawesome - https://fontawesome.com License - https://fontawesome.com/license/free Copyright 2025 Fonticons, Inc.-->
  <path
     d="M128 128C128 92.7 156.7 64 192 64L341.5 64C358.5 64 374.8 70.7 386.8 82.7L493.3 189.3C505.3 201.3 512 217.6 512 234.6L512 512C512 547.3 483.3 576 448 576L192 576C156.7 576 128 547.3 128 512L128 128zM336 122.5L336 216C336 229.3 346.7 240 360 240L453.5 240L336 122.5zM248 320C234.7 320 224 330.7 224 344C224 357.3 234.7 368 248 368L392 368C405.3 368 416 357.3 416 344C416 330.7 405.3 320 392 320L248 320zM248 416C234.7 416 224 426.7 224 440C224 453.3 234.7 464 248 464L392 464C405.3 464 416 453.3 416 440C416 426.7 405.3 416 392 416L248 416z"
     id="path1"
     style="fill:#ffffff;fill-opacity:1" />
</svg>
